<?xml version="1.0" encoding="utf-8"?>
<!-- Generator: Adobe Illustrator 16.0.0, SVG Export Plug-In . SVG Version: 6.00 Build 0)  -->
<!DOCTYPE svg PUBLIC "-//W3C//DTD SVG 1.1//EN" "http://www.w3.org/Graphics/SVG/1.1/DTD/svg11.dtd">
<svg version="1.1" id="Layer_1" xmlns="http://www.w3.org/2000/svg" xmlns:xlink="http://www.w3.org/1999/xlink" x="0px" y="0px"
	 width="333.211px" height="333.211px" viewBox="0 0 333.211 333.211" enable-background="new 0 0 333.211 333.211"
	 xml:space="preserve">
<circle fill="#121110" cx="166.606" cy="166.605" r="166.605"/>
<path fill="#B9CD33" d="M236.607,142.549c0.075,8.941,0.13,13.419,0.28,22.347c-17.254,5.141-25.84,7.848-42.958,13.598
	c4.327,40.859,6.822,61.217,12.483,101.77c-15.095,5.365-22.614,8.169-37.572,14.048c-11.231-65.36-20.357-131.075-27.371-197.017
	c-23.045,9.413-34.346,27.666-17.583,70.732c5.374,13.81,11.321,16.435,11.149,16.879c-1.873,4.983-33.135,5.421-41.146-13.912
	c-14.793-35.711-0.73-83.612,76.271-108.605c12.469-4.047,33.176-6.832,52.932-12.421c9.728-2.748,27.412-11.067,27.412-11.067
	c1.176,0.752,0.875,33.333-20.405,41.707c-12.312,4.84-29.204,5.824-44.455,7.643c2.14,27.386,3.35,41.045,6.084,68.313
	C209.604,150.636,218.581,147.826,236.607,142.549z"/>
<g>
	<path fill="#B9CD33" d="M30.139,223.677c-0.978,3.063,1.334,5.455,3.604,5.668c0.115,0.02,0.17,0.102,0.055,0.143
		c-7.698,2.844-10.809-6.535-5.299-12.954c8.941-10.419,37.387-18.204,70.617,1.21c24.87,14.547,36.922,0.157,40.088-4.17
		c3.971-5.441,0.43-6.57-3.199-0.451c-4.472,7.54-16.681,11.498-39.89-2.543c-39.889-24.091-82.867,0.178-72.285,18.512
		c3.042,5.264,10.419,5.264,13.837,1.969C45.876,223.171,32.545,216.171,30.139,223.677z"/>
	<path fill="#B9CD33" d="M100.538,222.022c-3.562-0.916-17.609-5.045-19.94,2.748c-2.413,8.066,10.452,9.775,7.157,4.279
		c-3.418-5.715,5.428-8.34,11.129-6.535C103.745,224.046,106.26,223.506,100.538,222.022z"/>
	<path fill="#B9CD33" d="M103.737,210.634c5.264,2.68,3.746,0.608-0.922-1.457c-5.477-2.398-10.351-10.178-3.979-12.223
		c6.131-1.934-4.643-9.126-8.211-1.51C87.167,202.841,100.456,208.979,103.737,210.634z"/>
</g>
<g>
	<path fill="#B9CD33" d="M308.947,129.003c0.971,3.066-1.347,5.465-3.609,5.67c-0.109,0.014-0.164,0.109-0.055,0.137
		c7.698,2.844,10.808-6.527,5.298-12.951c-8.941-10.41-37.394-18.197-70.617,1.211c-24.877,14.543-36.914,0.156-40.08-4.178
		c-3.979-5.434-0.431-6.555,3.193-0.438c4.477,7.534,16.672,11.485,39.895-2.543c39.883-24.09,82.867,0.172,72.279,18.516
		c-3.043,5.25-10.412,5.264-13.837,1.955C293.204,128.49,306.527,121.493,308.947,129.003z"/>
	<path fill="#B9CD33" d="M238.542,127.355c3.555-0.916,17.609-5.056,19.941,2.737c2.413,8.066-10.445,9.775-7.164,4.29
		c3.424-5.722-5.414-8.347-11.123-6.542C235.342,129.376,232.82,128.832,238.542,127.355z"/>
	<path fill="#B9CD33" d="M235.342,115.963c-5.264,2.673-3.746,0.608,0.93-1.456c5.463-2.399,10.344-10.18,3.965-12.223
		c-6.125-1.941,4.656-9.127,8.217-1.512C251.92,108.167,238.631,114.309,235.342,115.963z"/>
</g>
</svg>
