<?xml version="1.0" encoding="utf-8"?>
<!-- Generator: Adobe Illustrator 16.0.0, SVG Export Plug-In . SVG Version: 6.00 Build 0)  -->
<!DOCTYPE svg PUBLIC "-//W3C//DTD SVG 1.1//EN" "http://www.w3.org/Graphics/SVG/1.1/DTD/svg11.dtd">
<svg version="1.1" id="Layer_1" xmlns="http://www.w3.org/2000/svg" xmlns:xlink="http://www.w3.org/1999/xlink" x="0px" y="0px"
	 width="204.054px" height="83.784px" viewBox="0 0 204.054 83.784" enable-background="new 0 0 204.054 83.784"
	 xml:space="preserve">
<g>
	<g>
		<g>
			<path fill="#B9CD33" d="M12.452,61.206c-0.305,0.956,0.419,1.705,1.126,1.771c0.037,0.005,0.053,0.032,0.018,0.045
				c-2.404,0.887-3.376-2.041-1.655-4.047c2.792-3.252,11.678-5.684,22.056,0.379c7.77,4.541,11.532,0.049,12.52-1.305
				c1.241-1.698,0.135-2.05-0.998-0.138c-1.396,2.354-5.208,3.588-12.459-0.794c-12.457-7.524-25.883,0.053-22.576,5.781
				c0.95,1.642,3.253,1.644,4.322,0.614C17.367,61.046,13.205,58.861,12.452,61.206z"/>
			<path fill="#B9CD33" d="M34.44,60.691c-1.112-0.286-5.499-1.578-6.229,0.855c-0.753,2.521,3.265,3.053,2.237,1.338
				c-1.069-1.786,1.692-2.605,3.475-2.041C35.441,61.321,36.227,61.152,34.44,60.691z"/>
			<path fill="#B9CD33" d="M35.438,57.132c1.645,0.835,1.17,0.189-0.287-0.455c-1.71-0.75-3.232-3.179-1.241-3.817
				c1.914-0.605-1.452-2.851-2.566-0.472C30.265,54.698,34.414,56.616,35.438,57.132z"/>
		</g>
		<g>
			<path fill="#B9CD33" d="M193.871,61.447c0.303,0.956-0.42,1.705-1.127,1.77c-0.035,0.006-0.053,0.033-0.018,0.045
				c2.404,0.887,3.375-2.041,1.654-4.046c-2.791-3.252-11.678-5.684-22.055,0.378c-7.77,4.542-11.531,0.049-12.52-1.305
				c-1.242-1.697-0.135-2.049,0.998-0.137c1.398,2.353,5.207,3.587,12.459-0.794c12.457-7.524,25.883,0.052,22.576,5.78
				c-0.951,1.643-3.252,1.645-4.322,0.614C188.955,61.287,193.115,59.101,193.871,61.447z"/>
			<path fill="#B9CD33" d="M171.881,60.932c1.111-0.286,5.5-1.579,6.229,0.854c0.754,2.521-3.264,3.053-2.236,1.339
				c1.068-1.786-1.691-2.605-3.475-2.042C170.881,61.562,170.094,61.392,171.881,60.932z"/>
			<path fill="#B9CD33" d="M170.883,57.373c-1.645,0.836-1.17,0.19,0.289-0.454c1.707-0.75,3.23-3.179,1.24-3.817
				c-1.914-0.606,1.453-2.851,2.566-0.472C176.059,54.938,171.908,56.857,170.883,57.373z"/>
		</g>
		<g>
			<path fill="#E1DCD4" d="M107.29,61.672c0.684-0.771,5.303-6.077,5.303-6.077l-0.016-0.031l-0.031-0.015l-4.83,4.359
				c0,0-0.076,0.071-0.146-0.001c-0.07-0.07,0-0.144,0-0.144l4.334-4.854l-0.015-0.035l-0.034-0.015l-4.843,4.342
				c0,0-0.075,0.073-0.14,0.009c-0.065-0.066,0.003-0.144,0.003-0.144l4.341-4.842l-0.014-0.033l-0.034-0.017l-4.852,4.334
				c0,0-0.077,0.069-0.145,0c-0.07-0.07-0.001-0.146-0.001-0.146l4.359-4.83l-0.016-0.029l-0.029-0.016c0,0-5.306,4.617-6.077,5.304
				c-0.074,0.063-0.081,0.142-0.04,0.228c0.146,0.285,0.385,1.07-0.087,2.174c-0.462,1.159-10.75,10.054-13.016,11.943
				c-0.563,0.469-1.094,1.399-0.868,2.548l0,0c1.146,0.225,2.077-0.306,2.546-0.87c1.89-2.266,10.782-12.555,11.943-13.017
				c1.104-0.472,1.889-0.232,2.174-0.088C107.147,61.753,107.226,61.745,107.29,61.672z M91.498,73.225
				c0.443-0.368,0.615-0.448,0.615-0.448s-0.727,0.607-1.001,1.035c-0.245,0.357-0.449,0.799-0.549,1.687
				C90.456,74.467,90.976,73.661,91.498,73.225z M107.03,61.563c-0.286-0.146-1.042-0.414-2.145,0.057c0,0,0.723-0.438,1.772-0.315
				c0.146,0.018,0.481,0.08,0.662-0.064c0.201-0.158,0.51-0.472,1.248-1.232c-0.618,0.721-1.116,1.301-1.311,1.518
				C107.193,61.597,107.114,61.605,107.03,61.563z"/>
			<path fill="#E1DCD4" d="M111.173,72.791c-1.161-0.968-5.75-5.08-9.858-9.088c-3.818-4.43-8.616-8.695-9.297-9.473
				c-0.732-0.833-1.48-0.317-1.044,1.209c0.719,2.52,5.388,7.85,9.088,9.265c0.079,0.042,0.116,0.055,0.185,0.101
				c1.478,0.946,7.445,7.502,9.248,9.664c0.469,0.563,1.401,1.095,2.547,0.869h0.001C112.268,74.19,111.736,73.259,111.173,72.791z
				 M91.419,56.085c0,0-0.104-0.127-0.228-0.509c-0.308-0.946-0.205-1.481,0.119-1.605c-0.247,0.223-0.255,0.609-0.195,1.01
				C91.2,55.53,91.419,56.085,91.419,56.085z M100.638,64.72c-0.136,0.134-0.311,0.027-0.365-0.027c0,0,0.143-0.004,0.25-0.11
				l0.714-0.716c0.09-0.09,0.21,0.041,0.122,0.13L100.638,64.72z M111.86,75.114c-0.1-0.889-0.304-1.33-0.548-1.687
				c-0.275-0.429-1.002-1.037-1.002-1.037s0.174,0.082,0.615,0.449C111.446,73.275,111.968,74.082,111.86,75.114z"/>
		</g>
		<text transform="matrix(0.7 0 0 0.7 48.4111 68.5054)" fill="#E1DCD4" font-family="'Pompiere-Regular'" font-size="11.4593">restaurant</text>
		<g>
			<g>
				<path fill="#B9CD33" d="M48.268,32.301c0.011,1.277,0.018,1.917,0.04,3.192c-2.465,0.734-3.692,1.122-6.136,1.942
					c0.618,5.836,0.975,8.746,1.783,14.538c-2.157,0.766-3.231,1.166-5.367,2.006c-1.604-9.336-2.909-18.724-3.91-28.144
					c-3.292,1.345-4.906,3.952-2.512,10.104c0.768,1.973,1.617,2.347,1.593,2.411c-0.268,0.712-4.734,0.775-5.878-1.987
					c-2.113-5.102-0.104-11.945,10.896-15.515c1.781-0.578,4.739-0.976,7.562-1.774c1.389-0.393,3.916-1.581,3.916-1.581
					c0.168,0.107,0.124,4.762-2.916,5.958c-1.759,0.692-4.172,0.832-6.351,1.092c0.306,3.912,0.479,5.864,0.869,9.759
					C44.41,33.456,45.692,33.055,48.268,32.301z"/>
				<path fill="#B9CD33" d="M65.419,30.507c0.127,0.183,0.7,0.244,1.287,0.132c1.972-0.374,2.606-1.916,4.08-2.79
					c0.125,0.333,0.187,0.5,0.311,0.833c-1.051,1.813-4.756,3.764-5.252,4.659c-1.752,3.163-2.52,13.221-6.34,14.184
					c-4.088,1.03-6.346-0.216-7.721-4.961c-2.843-9.81,1.265-15.599,7.222-16.942C63.107,24.699,64.352,28.974,65.419,30.507z
					 M62.878,34.377c-0.246-0.182-1.917-0.47-2.136-1.442c-0.264-1.175,1.066-2.836,1.217-3.243
					c0.185-0.498-1.049-1.987-2.243-1.719c-4.007,0.899-3.589,9.574-2.762,12.791c0.62,2.413,1.878,2.771,3.406,2.404
					C62.75,42.592,63.457,34.805,62.878,34.377z"/>
				<path fill="#B9CD33" d="M83.073,27.907c0.109,0.194,0.671,0.31,1.265,0.255c1.991-0.184,2.769-1.656,4.314-2.386
					c0.092,0.343,0.139,0.514,0.23,0.857c-1.215,1.704-5.076,3.295-5.653,4.137c-2.045,2.984-3.75,12.917-7.626,13.507
					c-4.148,0.632-6.266-0.827-7.181-5.682C66.53,28.56,71.145,23.194,77.176,22.43C81.329,21.904,82.156,26.279,83.073,27.907z
					 M80.188,31.516c-0.227-0.203-1.857-0.652-1.982-1.641c-0.151-1.194,1.325-2.723,1.514-3.112
					c0.232-0.479-0.854-2.076-2.062-1.924c-4.057,0.51-4.461,9.182-3.945,12.463c0.387,2.461,1.6,2.94,3.149,2.721
					C79.286,39.681,80.725,31.998,80.188,31.516z"/>
				<path fill="#B9CD33" d="M107.854,13.111c-2.372,8.896-3.442,13.363-5.349,22.319c-0.083,0.456-0.206,0.913-0.208,1.328
					c-0.004,0.913,0.434,1.532,1.994,1.557c1.6,0.026,3.753-2.234,5.447-3.486c0.555,0.025,0.833,0.04,1.387,0.069
					c-1.979,1.806-6.621,7.171-9.675,7.171c-2.545,0-4.824-3.087-4.824-3.087c-0.182-0.029-2.838,3.492-5.22,3.631
					c-3.749,0.22-5.084-2.46-5.297-4.9c-0.621-7.114,1.345-16.05,10.117-16.288c1.053-0.029,2.159,0.365,2.952,0.979
					c0.727-3.43,1.107-5.142,1.903-8.564C103.779,13.503,105.134,13.357,107.854,13.111z M91.476,36.207
					c0.14,2.487,1.482,2.872,2.479,2.829c0.917-0.04,2.167-1.162,2.491-2.167c0.097-0.301,0.095-0.875,0.204-1.376
					c0.792-4.423,1.217-6.632,2.122-11.046c-0.699-0.572-1.527-0.721-2.134-0.706C93.387,23.824,91.158,30.568,91.476,36.207z"/>
				<path fill="#B9CD33" d="M123.854,36.835c-0.179,0.438-0.315,0.881-0.367,1.293c-0.113,0.906,0.245,1.573,1.795,1.785
					c1.59,0.217,2.365-0.97,4.184-2.026c0.547,0.087,0.821,0.131,1.368,0.223c-2.163,1.575-5.786,5.556-8.823,5.191
					s-4.706-1.918-4.422-5.019c0.061-0.662,0.199-1.316,0.435-2.086c0.894-2.919,1.354-4.375,2.298-7.284
					c0.122-0.363,0.201-0.73,0.235-1.061c0.152-1.487-0.566-2.521-1.729-2.628c-1.033-0.095-1.832,0.128-2.778,0.639
					c-1.977,6.576-2.899,9.877-4.617,16.497c-2.253-0.131-3.381-0.177-5.636-0.234c1.868-8.258,2.902-12.376,5.17-20.578
					c2.526,0.125,3.789,0.207,6.31,0.414c-0.283,0.876-0.425,1.315-0.704,2.192c1.873-1.101,3.986-1.903,5.908-1.692
					c2.359,0.259,4.694,3.001,4.318,5.757c-0.045,0.329-0.092,0.659-0.221,0.976C125.459,32.244,124.914,33.772,123.854,36.835z"/>
				<path fill="#B9CD33" d="M135.112,42.347c1.492,0.292,3.772-0.674,4.612-2.137c1.107-1.928,3.374-3.688,4.129-3.952
					c1.543-0.54,3.957-5.612,5.47-8.482c2.603,0.154,3.908,0.254,6.526,0.502c-0.065,0.223-0.097,0.334-0.162,0.558
					c-1.925,6.575,0.248,9.398-1.189,14.038c-0.086,0.277-0.298,0.819-0.298,0.819c0.065,0.066,2.727-1.358,3.383-1.756
					c0.237,0.671,0.353,1.006,0.583,1.678c-1.389,0.5-3.99,1.254-5.358,2.256c-1.604,1.174-4.271,2.726-7.823,1.797
					c-3.666-0.959-5.621-5.073-5.621-5.073c-0.241-0.109-4.357,2.747-7.491,2.184c-3.716-0.667-5.305-3.93-4.793-7.463
					c0.756-5.218,4.462-14.19,12.348-12.609c3.552,0.712,5.213,2.569,4.559,5.4c-1.142,4.935-9.91,5.591-11.044,6.387
					c-0.212,0.148-0.345,1.247-0.432,1.737C132.033,40.929,133.58,42.046,135.112,42.347z M140.405,27.151
					c-2.396-0.499-7.038,6.986-6.789,7.438c0.399,0.726,7.151-1.992,7.792-4.847C141.598,28.897,141.689,27.418,140.405,27.151z
					 M143.085,41.411c-0.474-0.114-1.329-0.707-1.341-0.703c-0.343,0.114,0.449,3.719,2.506,4.24
					c1.318,0.333,3.674-0.837,4.517-3.92c0.679-2.483,0.653-10.139,0.653-10.139c-0.029-0.013-3.899,5.584-3.825,6.008
					c0.047,0.27,1.072,1.384,0.762,2.59C145.964,41.015,144.471,41.745,143.085,41.411z"/>
				<path fill="#B9CD33" d="M172.466,34.063c-0.085,0.216-0.128,0.324-0.213,0.541c-2.515,6.373-0.355,9.395-2.214,13.883
					c-1.478,3.567-4.92,5.706-9.967,3.877c-4.299-1.559-6.011-3.492-4.776-7.369c0.995-3.125,3.833-3.854,4.653-4.065
					c1.528-0.394,4.25-5.255,6.02-7.974C168.563,33.351,169.863,33.571,172.466,34.063z M158.729,45.951
					c-0.466-0.159-1.27-0.828-1.282-0.825c-0.354,0.083,0.115,3.747,2.129,4.459c1.291,0.456,3.758-0.487,4.881-3.48
					c0.904-2.41,1.566-10.042,1.566-10.042c-0.028-0.016-4.408,5.203-4.374,5.627c0.022,0.273,0.959,1.5,0.529,2.652
					C161.635,45.801,160.087,46.414,158.729,45.951z"/>
			</g>
		</g>
		<g>
			<text transform="matrix(1 0 0 1 114.043 68.5054)" fill="#E1DCD4" font-family="'Pompiere-Regular'" font-size="11.4593"> </text>
			<text transform="matrix(0.7 0 0 0.7 116.0801 68.5054)" fill="#E1DCD4" font-family="'Pompiere-Regular'" font-size="11.4593">reviews</text>
			<text transform="matrix(1 0 0 1 140.9551 68.5054)" fill="#E1DCD4" font-family="'Pompiere-Regular'" font-size="11.4593"> </text>
			<text transform="matrix(0.7 0 0 0.7 142.9922 68.5054)" fill="#E1DCD4" font-family="'Pompiere-Regular'" font-size="11.4593">app</text>
		</g>
	</g>
</g>
</svg>
